<?xml version="1.0" encoding="UTF-8" standalone="no" ?>
<!DOCTYPE svg PUBLIC "-//W3C//DTD SVG 1.1//EN" "http://www.w3.org/Graphics/SVG/1.1/DTD/svg11.dtd">
<svg xmlns="http://www.w3.org/2000/svg" xmlns:xlink="http://www.w3.org/1999/xlink" version="1.1" width="640" height="640" viewBox="0 0 640 640" xml:space="preserve">
<desc>Created with Fabric.js 5.3.0</desc>
<defs>
</defs>
<g transform="matrix(1 0 0 1 325.4531375212 319.9999994612)" id="yVsioLh8lZdZdLRwwWEMk"  >
<path style="stroke-width: 1; stroke-dasharray: none; stroke-linecap: butt; stroke-dashoffset: 0; stroke-linejoin: miter; stroke-miterlimit: 4; fill-rule: nonzero; opacity: 1;"  transform=" translate(-284.898550957, -254.31453)" d="M 230.62403 153.65493 C 224.57248 157.64395000000002 219.62115 160.62056 215.4917 162.79749 C 220.83991 156.71308000000002 227.2349 147.40674 229.87628 135.61488 C 234.78856000000002 113.68506 224.08681 87.5447 224.08681 87.5447 L 224.0868 87.5447 C 224.0868 87.5447 190.05171 104.91312 189.52540000000002 155.43944 C 189.69017000000002 159.72335999999999 189.75177000000002 162.83811 189.75866000000002 165.09588 C 188.98309000000003 164.74558 188.17407000000003 164.38988999999998 187.3103 164.04511 C 184.2554 157.09449 182.67405000000002 152.69504 181.86385 149.93792 C 181.89769 105.90565999999998 218.07902 77.42573999999999 226.46883000000003 77.33451 C 235.63709000000003 77.23482 250.98458000000002 131.32715 230.62404000000004 153.65492999999998 z M 125.83873 86.04331 C 132.1555 85.33734000000001 156.288 98.85807 169.96599 124.45417 C 167.71351 124.85652 164.84196 125.43172 161.56853 126.22683 C 148.63891 102.88579000000001 129.44732000000002 95.8871 129.44732000000002 95.8871 L 129.44731000000002 95.8871 C 129.44731000000002 95.8871 122.99772000000002 119.52121 128.20845000000003 139.86641 C 125.45835000000002 141.66456 122.82960000000003 143.65184 120.40612000000003 145.84645 C 111.76353000000003 121.55132 118.65469000000003 86.84621000000001 125.83874000000003 86.04331 z M 294.67867 354.92011 C 294.67868 354.92012 294.67869 354.92012 294.67869 354.92013000000003 C 294.67868000000004 354.92013000000003 294.67867 354.92013000000003 294.67866000000004 354.92012000000005 z M 338.2458 419.82979 C 333.19307 419.9052 324.77144 419.92352 316.25584999999995 419.91716 C 316.89484999999996 416.67042000000004 316.81418999999994 411.84022000000004 311.23637999999994 410.51217 C 305.0189899999999 409.03184000000005 299.12174999999996 415.91183 296.31440999999995 419.86724000000004 C 291.34004999999996 419.84760000000006 288.04659999999996 419.82980000000003 288.04659999999996 419.82980000000003 C 288.04659999999996 419.82980000000003 288.2458 414.95446000000004 304.38125999999994 399.21740000000005 C 320.7158999999999 378.30109000000004 301.69359999999995 359.946 294.67868999999996 354.92014000000006 C 323.67617999999993 360.64175000000006 342.62429 359.19356000000005 353.56458 357.07254000000006 C 352.68181 370.45463000000007 355.37726999999995 396.32383000000004 338.2458 419.82979000000006 z M 138.5453 212.56367 C 143.55812 212.56367 147.62649 216.63205 147.62649 221.64486 C 147.62649 226.65768 143.55811 230.72605 138.5453 230.72605 C 133.53248 230.72605 129.46411 226.65767 129.46411 221.64486 C 129.46411 216.63204 133.53249 212.56367 138.5453 212.56367 z M 405.11446 169.19962 C 418.72188 184.93162 428.06281 201.9733 434.14929 219.51169000000002 C 436.42327 222.09730000000002 438.88561 225.07582000000002 441.55101 228.48654000000002 C 486.4511 285.94174000000004 531.37725 265.44029 531.37725 265.44029 C 531.37725 265.44029 615.41357 231.99379 534.91392 277.77413 C 495.76460999999995 300.03844000000004 465.00267999999994 290.81939 443.72950999999995 275.47365 C 445.28660999999994 350.55491 407.34374999999994 419.19962 407.34374999999994 419.19962 C 407.34374999999994 419.19962 396.0503499999999 419.29614 383.7727499999999 419.32977 C 384.2791499999999 416.11514999999997 383.8993499999999 411.7622 378.6491199999999 410.51214 C 372.71964999999994 409.10035999999997 367.08136999999994 415.29251 364.13677999999993 419.3 C 361.4910699999999 419.27771 359.1664099999999 419.24519000000004 357.3437599999999 419.19962000000004 C 359.89152999999993 409.00854000000004 376.4520399999999 399.77287 378.36286999999993 382.57542 C 380.27368999999993 365.37797 373.90426999999994 354.54994 367.5348399999999 342.44803 C 343.32706999999994 349.10116 317.7271899999999 349.01565 292.91369999999995 344.96925000000005 C 280.97306999999995 383.50097000000005 261.99355999999995 419.82978 261.99355999999995 419.82978 C 261.99355999999995 419.82978 249.73074999999994 420.2407 235.63824999999994 420.38841 C 236.08335999999994 417.20284000000004 235.58897999999994 413.04355000000004 230.47662999999994 411.82632 C 224.67047999999994 410.4439 219.14353999999994 416.35241 216.15148999999994 420.36139000000003 C 211.66654999999994 420.2841 207.50233999999995 420.14450000000005 204.03438999999995 419.91833 C 213.42214999999993 400.32649000000004 222.80989999999994 407.4723 230.97316999999995 374.81924000000004 C 236.21940999999995 353.83427000000006 229.66513999999995 335.04082000000005 224.31110999999996 324.28923000000003 C 182.08183999999994 306.06664 151.45825999999994 282.91533000000004 149.70045999999996 276.84294000000006 C 121.03803999999997 289.58179000000007 129.63676999999996 286.0786100000001 86.96160999999996 324.29517000000004 C 44.28644999999997 362.51173000000006 17.534859999999966 341.17415000000005 17.534859999999966 341.17415000000005 C 17.534859999999966 341.17415000000005 -15.904630000000033 318.56268000000006 9.573079999999965 298.81746000000004 C 35.050789999999964 279.07224 41.101739999999964 274.61364000000003 80.91065999999996 198.81746000000004 C 113.16675999999997 137.40185000000002 163.61367999999996 127.63147000000004 181.59485999999998 126.13479000000004 C 180.02479999999997 130.39133000000004 178.69304 134.86380000000003 177.67074 139.53758000000005 C 177.32768 139.59120000000004 176.98298 139.64465000000004 176.63640999999998 139.69797000000005 C 159.41787 142.34698000000006 128.29204 145.65823000000006 95.51057999999999 198.63837000000007 C 62.72911999999999 251.61850000000007 64.38475 268.1747900000001 27.298659999999984 300.2940000000001 C 21.669519999999984 304.2675100000001 14.053629999999984 308.9032700000001 14.053629999999984 308.9032700000001 L 14.053609999999985 308.9032700000001 C 14.053609999999985 308.9032700000001 43.19267999999998 319.49930000000006 43.52380999999998 334.7310800000001 C 53.78870999999998 331.0887000000001 67.69599999999998 329.4330700000001 85.57678999999999 307.5787600000001 C 103.45758 285.7244600000001 125.31188999999999 269.6359400000001 147.16618999999997 264.6690500000001 C 153.12644999999998 263.0134200000001 176.63638999999998 247.3138600000001 176.63638999999998 247.3138600000001 C 176.63638999999998 247.3138600000001 219.85017 237.38009000000008 242.36672999999996 285.0622000000001 C 241.70447999999996 267.1814100000001 238.88804999999996 248.30723000000006 231.60327999999996 236.71783000000008 C 246.50393999999994 244.9959800000001 259.08671999999996 261.0923600000001 264.05360999999994 274.66852000000006 C 258.4244699999999 247.84733000000006 259.74896999999993 246.32048000000006 244.51718999999994 220.82379000000006 C 253.78870999999995 225.12843000000007 272.00062999999994 239.03571000000005 280.94102999999996 255.92313000000007 C 277.9609 237.71121000000008 272.00062999999994 222.14830000000006 259.41784999999993 210.55889000000008 C 276.63638999999995 217.51253000000008 289.55029999999994 228.43968000000007 300.1463299999999 243.00922000000008 C 297.49731999999995 231.0886900000001 292.53043999999994 214.20127000000008 270.0138799999999 196.9827300000001 C 281.6032799999999 197.9761100000001 300.1463299999999 206.5853800000001 318.02712999999994 225.1284300000001 C 311.40460999999993 209.5655200000001 308.09335999999996 198.3072400000001 272.9940199999999 179.7641900000001 C 293.19269999999995 182.4132000000001 316.70262999999994 194.9959800000001 337.56355999999994 215.85691000000008 C 334.25229999999993 205.59201000000007 327.62978999999996 192.6781000000001 294.8483299999999 173.1416800000001 C 317.69600999999994 175.4595600000001 339.55031999999994 188.04234000000008 355.4443599999999 202.9430000000001 C 350.4774699999999 192.01585000000009 342.5304499999999 177.7774400000001 307.4311099999999 163.53903000000008 C 325.31189999999987 164.20128000000008 345.84170999999986 169.4992900000001 371.0072699999999 185.39333000000008 C 366.3715099999999 174.79730000000006 350.47746999999987 164.53240000000008 318.0271399999999 149.6317400000001 C 345.5105799999999 152.2807500000001 363.3913799999999 154.9297500000001 386.9013099999999 169.8304200000001 C 368.7079399999999 154.9449400000001 329.6961199999999 108.00565000000009 244.7771099999999 126.72659000000009 C 244.8204399999999 122.69696000000009 244.62652999999992 118.65073000000008 244.2419299999999 114.68566000000008 C 313.2168299999999 100.79482000000009 366.3123299999999 125.94477000000009 405.1144799999999 169.1996200000001 z M 177.41862 310.58866 C 177.41862 310.58867 177.41862 310.58867 177.41862 310.58868 C 177.41862 310.58868 177.41861 310.58868 177.41861 310.58867000000004 z M 201.00663 417.9633 C 195.56774000000001 418.1446 186.96066 418.20165000000003 177.99513 418.19832 C 177.88405 415.52341 176.70845 412.77720000000005 172.71481 411.82633000000004 C 167.92604 410.68614 163.3272 414.50565000000006 160.18386 418.12847000000005 C 150.04080000000002 418.0591600000001 142.27647000000002 417.96330000000006 142.27647000000002 417.96330000000006 C 142.27647000000002 417.96330000000006 141.82576000000003 408.6259100000001 155.58238000000003 398.04390000000006 C 169.33899000000002 387.46189000000004 170.78042000000002 354.17464000000007 177.41862000000003 310.58868000000007 C 182.33953000000002 314.2287100000001 196.44582000000003 322.9060100000001 214.05273000000003 327.9510200000001 C 215.46658000000002 330.54336000000006 217.20287000000002 334.48408000000006 218.72147 340.12585000000007 C 219.05659 363.95731000000006 215.10071000000002 375.9817800000001 201.00663 417.9633100000001 z M 279.44541 0 C 419.82703 0 533.7599399999999 113.93291 533.7599399999999 254.31453 C 533.7599399999999 254.40123 533.7598999999999 254.48791 533.7598099999999 254.57459 C 524.3376299999999 257.55349 516.5620399999999 257.99593 510.9960799999999 257.64001 C 511.0116799999999 256.53337 511.0195099999999 255.42486000000002 511.0195099999999 254.31453000000002 C 511.0195099999999 126.48562000000003 407.2743099999999 22.74042000000003 279.44539999999995 22.74042000000003 C 220.02689999999996 22.74042000000003 165.81205999999995 45.15616000000003 124.80153999999996 81.98699000000002 C 122.81742999999996 81.32724000000002 120.91652999999997 80.74580000000002 118.80849999999997 79.93133000000002 C 112.23493999999997 88.54270000000002 108.26910999999997 95.59430000000002 105.88096999999996 101.05902000000002 C 74.17428999999996 136.93539 53.409699999999965 182.70478000000003 48.82920999999996 233.12517000000003 C 45.79570999999996 240.00805000000003 37.90882999999996 256.45053 25.71972999999996 271.74452 C 25.329279999999958 265.98482 25.13086999999996 260.1727 25.13086999999996 254.31453000000002 C 25.13086999999996 113.93291000000002 139.06377999999995 2.842170943040401e-14 279.44539999999995 2.842170943040401e-14 z M 279.44541 508.62906 C 177.11440999999996 508.62906 88.83736999999999 448.08896999999996 48.500279999999975 360.89478999999994 C 52.424549999999975 360.01225999999997 59.30318999999997 357.66033999999996 69.17526999999998 351.41689999999994 C 105.91657999999998 430.78617999999994 186.28517 485.88863999999995 279.44539999999995 485.88863999999995 C 390.16790999999995 485.88863999999995 482.82129 408.05242999999996 505.63665999999995 304.14892 C 517.5787799999999 302.63185999999996 525.16585 300.56681999999995 529.8812099999999 298.77493 C 508.8346799999999 417.98305999999997 404.6614599999999 508.62906 279.4454099999999 508.62906 z" stroke-linecap="round" />
</g>
<g transform="matrix(1 0 0 1 -391.9387348903 118.6671731219)" id="8rIfTdGAQVCqxIc8w8YLE"  >
<path style="stroke-width: 1; stroke-dasharray: none; stroke-linecap: round; stroke-dashoffset: 0; stroke-linejoin: round; stroke-miterlimit: 10; fill-rule: nonzero; opacity: 1;"  transform=" translate(391.9387348903, -118.6671731219)" d="M -388.97163319541573 119.51513074896894 Q -388.9726331954157 119.51513074896894 -389.8200908225343 119.0914019354096 Q -390.667548449653 118.66767312185027 -391.0912772632123 118.66767312185027 Q -391.51500607677167 118.66767312185027 -393.20992133100896 118.24394430829096 L -394.9058365852462 117.81921549473165" stroke-linecap="round" />
</g>
</svg>
