<?xml version="1.0" encoding="UTF-8" standalone="no" ?>
<!DOCTYPE svg PUBLIC "-//W3C//DTD SVG 1.1//EN" "http://www.w3.org/Graphics/SVG/1.1/DTD/svg11.dtd">
<svg xmlns="http://www.w3.org/2000/svg" xmlns:xlink="http://www.w3.org/1999/xlink" version="1.1" width="640" height="640" viewBox="0 0 640 640" xml:space="preserve">
<desc>Created with Fabric.js 5.3.0</desc>
<defs>
</defs>
<g transform="matrix(1 0 0 1 229.525939353 337.1898330186)" id="ihGI4Z_hFpLI-gSHFC-Gl"  >
<path style="stroke: rgb(0,0,0); stroke-width: 1; stroke-dasharray: none; stroke-linecap: butt; stroke-dashoffset: 0; stroke-linejoin: miter; stroke-miterlimit: 4; fill: rgb(255,255,255); fill-opacity: 0; fill-rule: nonzero; opacity: 1;"  transform=" translate(0, 0)" d="M 0 0" stroke-linecap="round" />
</g>
<g transform="matrix(1 0 0 1 435.2653194727 484.0852906144)" id="5Z1tJSgicokI6pYifhHCn"  >
<path style="stroke: rgb(108,59,244); stroke-width: 1; stroke-dasharray: none; stroke-linecap: butt; stroke-dashoffset: 0; stroke-linejoin: miter; stroke-miterlimit: 4; fill: rgb(255,255,255); fill-opacity: 0; fill-rule: nonzero; opacity: 1;"  transform=" translate(0, 0)" d="M 0 0" stroke-linecap="round" />
</g>
<g transform="matrix(1 0 0 1 254.5519190089 372.6826221263)" id="_DTOjFJzsqOii09o_8WOx"  >
<path style="stroke: rgb(0,0,0); stroke-width: 1; stroke-dasharray: none; stroke-linecap: butt; stroke-dashoffset: 0; stroke-linejoin: miter; stroke-miterlimit: 4; fill: rgb(255,255,255); fill-opacity: 0; fill-rule: nonzero; opacity: 1;"  transform=" translate(0, 0)" d="M 0 0" stroke-linecap="round" />
</g>
<g transform="matrix(1 0 0 1 -391.9387348903 118.6671731219)" id="8rIfTdGAQVCqxIc8w8YLE"  >
<path style="stroke: rgb(244,39,157); stroke-width: 1; stroke-dasharray: none; stroke-linecap: round; stroke-dashoffset: 0; stroke-linejoin: round; stroke-miterlimit: 10; fill: none; fill-rule: nonzero; opacity: 1;"  transform=" translate(391.9387348903, -118.6671731219)" d="M -388.97163319541573 119.51513074896894 Q -388.9726331954157 119.51513074896894 -389.8200908225343 119.0914019354096 Q -390.667548449653 118.66767312185027 -391.0912772632123 118.66767312185027 Q -391.51500607677167 118.66767312185027 -393.20992133100896 118.24394430829096 L -394.9058365852462 117.81921549473165" stroke-linecap="round" />
</g>
<g transform="matrix(1 0 0 1 496.3282776527 248.985807515)" id="FZBVQHtpUJNVDZBHrGQOD"  >
<path style="stroke: rgb(244,39,157); stroke-width: 1; stroke-dasharray: none; stroke-linecap: butt; stroke-dashoffset: 0; stroke-linejoin: miter; stroke-miterlimit: 4; fill: rgb(255,255,255); fill-opacity: 0; fill-rule: nonzero; opacity: 1;"  transform=" translate(0, 0)" d="M 0 0" stroke-linecap="round" />
</g>
<g transform="matrix(1 0 0 1 325.4531365642 314.5468623582)" id="zkGQKOb6i_WL-1VLr-Yn_"  >
<path style="stroke: rgb(0,0,0); stroke-width: 1; stroke-dasharray: none; stroke-linecap: butt; stroke-dashoffset: 0; stroke-linejoin: miter; stroke-miterlimit: 4; fill: rgb(0,0,0); fill-rule: nonzero; opacity: 1;"  transform=" translate(0, 0)" d="M -54.27452 -95.20646 C -60.32607 -91.21744000000001 -65.2774 -88.24083 -69.40685 -86.0639 C -64.05864000000001 -92.14831000000001 -57.663650000000004 -101.45465 -55.022270000000006 -113.24651 C -50.10999 -135.17633 -60.81174000000001 -161.31669 -60.81174000000001 -161.31669 L -60.81175000000001 -161.31669 C -60.81175000000001 -161.31669 -94.84684000000001 -143.94826999999998 -95.37315000000001 -93.42195 C -95.20838 -89.13803 -95.14678 -86.02328 -95.13989000000001 -83.76550999999999 C -95.91546000000001 -84.11581 -96.72448000000001 -84.47149999999999 -97.58825 -84.81627999999999 C -100.64315 -91.76689999999999 -102.2245 -96.16635 -103.0347 -98.92347 C -103.00086 -142.95573 -66.81953 -171.43565 -58.42972 -171.52688 C -49.26146 -171.62657000000002 -33.913970000000006 -117.53424000000001 -54.27451000000001 -95.20646 z M -159.05982 -162.81808 C -152.74305 -163.52405000000002 -128.61055 -150.00332 -114.93256 -124.40722000000001 C -117.18504 -124.00487000000001 -120.05659 -123.42967000000002 -123.33001999999999 -122.63456000000001 C -136.25964 -145.97560000000001 -155.45122999999998 -152.97429 -155.45122999999998 -152.97429 L -155.45123999999998 -152.97429 C -155.45123999999998 -152.97429 -161.90082999999998 -129.34018 -156.69009999999997 -108.99498 C -159.44019999999998 -107.19682999999999 -162.06894999999997 -105.20955 -164.49242999999998 -103.01494 C -173.13502 -127.31007 -166.24385999999998 -162.01518 -159.05980999999997 -162.81808 z M 9.78012 106.05872 C 9.78013 106.05873 9.78014 106.05873 9.78014 106.05874 C 9.78013 106.05874 9.78012 106.05874 9.780109999999999 106.05873 z M 53.34725 170.9684 C 48.294520000000006 171.04381 39.87289 171.06213 31.357300000000002 171.05577 C 31.9963 167.80903 31.915640000000003 162.97883 26.337830000000004 161.65078 C 20.120440000000002 160.17045 14.223200000000004 167.05044 11.415860000000004 171.00585 C 6.441500000000004 170.98621 3.148050000000003 170.96841 3.148050000000003 170.96841 C 3.148050000000003 170.96841 3.347250000000003 166.09307 19.482710000000004 150.35601 C 35.817350000000005 129.4397 16.795050000000003 111.08461 9.780140000000005 106.05875 C 38.77763 111.78036 57.72574 110.33217 68.66603 108.21115 C 67.78326000000001 121.59324000000001 70.47872000000001 147.46244000000002 53.34725 170.9684 z M -146.35325 -36.29772 C -141.34043 -36.29772 -137.27206 -32.22934 -137.27206 -27.21653 C -137.27206 -22.20371 -141.34044 -18.13534 -146.35325 -18.13534 C -151.36607 -18.13534 -155.43444 -22.20372 -155.43444 -27.21653 C -155.43444 -32.22935 -151.36606 -36.29772 -146.35325 -36.29772 z M 120.21591 -79.66177 C 133.82333 -63.929770000000005 143.16425999999998 -46.888090000000005 149.25074 -29.349700000000006 C 151.52472 -26.764090000000007 153.98706 -23.785570000000007 156.65246000000002 -20.374850000000006 C 201.55255000000002 37.080349999999996 246.4787 16.578899999999994 246.4787 16.578899999999994 C 246.4787 16.578899999999994 330.51502 -16.867600000000007 250.01537 28.912739999999992 C 210.86606 51.177049999999994 180.10413 41.95799999999999 158.83096 26.612259999999992 C 160.38806 101.69351999999999 122.4452 170.33822999999998 122.4452 170.33822999999998 C 122.4452 170.33822999999998 111.1518 170.43474999999998 98.8742 170.46837999999997 C 99.3806 167.25375999999997 99.0008 162.90080999999998 93.75057 161.65074999999996 C 87.8211 160.23896999999997 82.18281999999999 166.43111999999996 79.23823 170.43860999999995 C 76.59252000000001 170.41631999999996 74.26786 170.38379999999995 72.44521 170.33822999999995 C 74.99298 160.14714999999995 91.55349000000001 150.91147999999995 93.46432 133.71402999999995 C 95.37514 116.51657999999995 89.00572 105.68854999999995 82.63629 93.58663999999996 C 58.428520000000006 100.23976999999996 32.82864 100.15425999999997 8.015150000000006 96.10785999999996 C -3.925479999999995 134.63957999999997 -22.904989999999994 170.96838999999994 -22.904989999999994 170.96838999999994 C -22.904989999999994 170.96838999999994 -35.16779999999999 171.37930999999995 -49.260299999999994 171.52701999999994 C -48.815189999999994 168.34144999999992 -49.309569999999994 164.18215999999993 -54.42191999999999 162.96492999999992 C -60.228069999999995 161.58250999999993 -65.75501 167.49101999999993 -68.74705999999999 171.49999999999991 C -73.23199999999999 171.4227099999999 -77.39621 171.2831099999999 -80.86416 171.0569399999999 C -71.4764 151.46509999999992 -62.08865 158.6109099999999 -53.92538 125.95784999999992 C -48.67914 104.97287999999992 -55.23341 86.17942999999993 -60.58744 75.42783999999992 C -102.81671 57.20524999999992 -133.44029 34.05393999999992 -135.19809 27.98154999999992 C -163.86051 40.72039999999992 -155.26178000000002 37.21721999999992 -197.93694 75.43377999999993 C -240.6121 113.65033999999993 -267.36369 92.31275999999993 -267.36369 92.31275999999993 C -267.36369 92.31275999999993 -300.80318 69.70128999999993 -275.32547 49.956069999999926 C -249.84776 30.210849999999926 -243.79681 25.752249999999925 -203.98789 -50.043930000000074 C -171.73179 -111.45954000000008 -121.28487 -121.22992000000008 -103.30368999999999 -122.72660000000008 C -104.87374999999999 -118.47006000000007 -106.20550999999999 -113.99759000000007 -107.22780999999999 -109.32381000000008 C -107.57086999999999 -109.27019000000008 -107.91556999999999 -109.21674000000009 -108.26213999999999 -109.16342000000007 C -125.48067999999999 -106.51441000000007 -156.60651 -103.20316000000007 -189.38797 -50.223020000000076 C -222.16943 2.7571099999999262 -220.5138 19.31339999999993 -257.59989 51.432609999999926 C -263.22903 55.40611999999992 -270.84492 60.04187999999993 -270.84492 60.04187999999993 L -270.84494 60.04187999999993 C -270.84494 60.04187999999993 -241.70587 70.63790999999993 -241.37474 85.86968999999993 C -231.10984 82.22730999999993 -217.20255 80.57167999999993 -199.32176 58.71736999999993 C -181.44097000000002 36.86306999999994 -159.58666 20.774549999999934 -137.73236000000003 15.807659999999935 C -131.77210000000002 14.152029999999934 -108.26216000000002 -1.5475300000000658 -108.26216000000002 -1.5475300000000658 C -108.26216000000002 -1.5475300000000658 -65.04838000000002 -11.481300000000067 -42.531820000000025 36.20080999999993 C -43.194070000000025 18.320019999999932 -46.01050000000002 -0.554160000000067 -53.29527000000002 -12.143560000000065 C -38.39461000000002 -3.8654100000000646 -25.811830000000022 12.230969999999935 -20.844940000000022 25.807129999999937 C -26.474080000000022 -1.0140600000000646 -25.14958000000002 -2.540910000000064 -40.38136000000002 -28.03760000000006 C -31.10984000000002 -23.732960000000062 -12.89792000000002 -9.825680000000062 -3.9575200000000237 7.061739999999936 C -6.937650000000024 -11.150180000000063 -12.897920000000024 -26.713090000000065 -25.480700000000024 -38.302500000000066 C -8.262160000000023 -31.348860000000066 4.651749999999975 -20.421710000000065 15.247779999999974 -5.852170000000065 C 12.598769999999973 -17.772700000000064 7.631889999999974 -34.66012000000006 -14.884670000000025 -51.87866000000007 C -3.2952700000000252 -50.885280000000066 15.247779999999974 -42.27601000000007 33.12857999999997 -23.732960000000066 C 26.50605999999997 -39.295870000000065 23.19480999999997 -50.554150000000064 -11.90453000000003 -69.09720000000007 C 8.29414999999997 -66.44819000000007 31.80407999999997 -53.86541000000007 52.665009999999974 -33.00448000000007 C 49.35374999999998 -43.26938000000007 42.73123999999997 -56.18329000000007 9.949779999999976 -75.71971000000008 C 32.79745999999997 -73.40183000000007 54.65176999999998 -60.819050000000075 70.54580999999997 -45.91839000000007 C 65.57891999999997 -56.84554000000007 57.63189999999997 -71.08395000000007 22.532559999999975 -85.32236000000007 C 40.41334999999998 -84.66011000000007 60.94315999999998 -79.36210000000007 86.10871999999998 -63.46806000000008 C 81.47295999999997 -74.06409000000008 65.57891999999998 -84.32899000000008 33.128589999999974 -99.22965000000008 C 60.612029999999976 -96.58064000000007 78.49282999999997 -93.93164000000007 102.00275999999998 -79.03097000000008 C 83.80938999999998 -93.91645000000008 44.79756999999998 -140.85574000000008 -40.12144000000002 -122.13480000000008 C -40.078110000000024 -126.16443000000008 -40.27202000000002 -130.21066000000008 -40.65662000000002 -134.17573000000007 C 28.318279999999987 -148.06657000000007 81.41377999999999 -122.91662000000008 120.21592999999997 -79.66177000000008 z M -107.47993 61.72727 C -107.47993 61.72728 -107.47993 61.72728 -107.47993 61.727289999999996 C -107.47993 61.727289999999996 -107.47994 61.727289999999996 -107.47994 61.72727999999999 z M -83.89192 169.10191 C -89.33081 169.28321 -97.93789 169.34026 -106.90342 169.33693 C -107.0145 166.66201999999998 -108.1901 163.91581 -112.18374 162.96493999999998 C -116.97251 161.82475 -121.57135 165.64425999999997 -124.71469 169.26708 C -134.85775 169.19777 -142.62208 169.10191 -142.62208 169.10191 C -142.62208 169.10191 -143.07279 159.76452 -129.31617 149.18251 C -115.55956 138.6005 -114.11813 105.31325000000001 -107.47993 61.72729000000001 C -102.55901999999999 65.36732 -88.45273 74.04462000000001 -70.84582 79.08963000000001 C -69.43197 81.68197 -67.69568000000001 85.62269000000002 -66.17708 91.26446000000001 C -65.84196 115.09592 -69.79784000000001 127.12039000000001 -83.89192 169.10192 z" stroke-linecap="round" />
</g>
<g transform="matrix(1 0 0 1 319.9999944612 319.9999994612)" id="Vcn8Bl0EOluZ8IjEtkHda"  >
<path style="stroke: rgb(0,0,0); stroke-width: 0; stroke-dasharray: none; stroke-linecap: butt; stroke-dashoffset: 0; stroke-linejoin: miter; stroke-miterlimit: 4; fill: rgb(0,0,0); fill-rule: nonzero; opacity: 1;"  transform=" translate(-254.314535, -254.31453)" d="M 254.31454 0 C 394.69615999999996 0 508.62906999999996 113.93291 508.62906999999996 254.31453 C 508.62906999999996 254.40123 508.62902999999994 254.48791 508.62893999999994 254.57459 C 499.2067599999999 257.55349 491.43116999999995 257.99593 485.86520999999993 257.64001 C 485.88080999999994 256.53337 485.88863999999995 255.42486000000002 485.88863999999995 254.31453000000002 C 485.88863999999995 126.48562000000003 382.14343999999994 22.74042000000003 254.31452999999996 22.74042000000003 C 194.89602999999997 22.74042000000003 140.68118999999996 45.15616000000003 99.67066999999997 81.98699000000002 C 97.68655999999997 81.32724000000002 95.78565999999998 80.74580000000002 93.67762999999998 79.93133000000002 C 87.10406999999998 88.54270000000002 83.13823999999998 95.59430000000002 80.75009999999997 101.05902000000002 C 49.043419999999976 136.93539 28.278829999999978 182.70478000000003 23.698339999999973 233.12517000000003 C 20.664839999999973 240.00805000000003 12.777959999999974 256.45053 0.588859999999972 271.74452 C 0.19840999999997194 265.98482 -2.808864252301646e-14 260.1727 -2.808864252301646e-14 254.31453000000002 C -2.808864252301646e-14 113.93291000000002 113.93290999999998 2.842170943040401e-14 254.31452999999996 2.842170943040401e-14 z M 254.31454 508.62906 C 151.98354 508.62906 63.706500000000005 448.08896999999996 23.369409999999988 360.89478999999994 C 27.293679999999988 360.01225999999997 34.172319999999985 357.66033999999996 44.04439999999999 351.41689999999994 C 80.78571 430.78617999999994 161.15429999999998 485.88863999999995 254.31453 485.88863999999995 C 365.03704 485.88863999999995 457.69042 408.05242999999996 480.50579 304.14892 C 492.44791 302.63185999999996 500.03498 300.56681999999995 504.75034 298.77493 C 483.70381 417.98305999999997 379.53058999999996 508.62906 254.31454 508.62906 z" stroke-linecap="round" />
</g>
</svg>
